<svg id="Capa_1" enable-background="new 0 0 512 512" height="512" viewBox="0 0 512 512" width="512" xmlns="http://www.w3.org/2000/svg"><g><g><path d="m394.927 0h-370.472c-11.494 0-20.813 9.318-20.813 20.813v470.374c0 11.495 9.318 20.813 20.813 20.813h370.472c11.495 0 20.813-9.318 20.813-20.813v-470.374c0-11.495-9.318-20.813-20.813-20.813z" fill="#f9f6f9"/></g><g><path d="m394.927 0h-20.813c11.495 0 20.813 9.318 20.813 20.813v470.374c0 11.495-9.318 20.813-20.813 20.813h20.813c11.495 0 20.813-9.318 20.813-20.813v-470.374c0-11.495-9.318-20.813-20.813-20.813z" fill="#dddaec"/></g><g><g><g><path d="m142.049 233.106h135.285v345.496h-135.285z" fill="#df75a5" transform="matrix(0 1 -1 0 615.545 196.163)"/></g></g></g><g><g><path d="m65.041 278.947v-96.339c0-5.69 4.612-10.302 10.302-10.302h125.087c5.69 0 10.302 4.612 10.302 10.302v96.339c0 5.69-4.612 10.302-10.302 10.302h-125.088c-5.689 0-10.301-4.613-10.301-10.302z" fill="#b3e59f"/></g></g><g><g><path d="m183.709 373.794c-.027-.071-.055-.143-.085-.214-1.409-3.422-4.709-5.631-8.409-5.631-.003 0-.006 0-.01 0-3.703.004-7.003 2.221-8.406 5.649-.024.059-.048.118-.07.178l-22.664 59.507c-1.519 3.987.483 8.451 4.471 9.97 3.983 1.519 8.451-.482 9.97-4.471l3.749-9.843h25.75l3.706 9.822c1.167 3.094 4.108 5 7.229 5 .906 0 1.829-.161 2.727-.5 3.992-1.506 6.007-5.964 4.5-9.957zm-15.57 39.692 7.049-18.507 6.984 18.507z" fill="#e4f6ff"/></g><g><path d="m245.827 404.641 24.495-22.516c3.142-2.887 3.348-7.776.46-10.917-2.887-3.143-7.775-3.348-10.916-.46l-19.513 17.936v-13.01c0-4.268-3.459-7.726-7.726-7.726-4.268 0-7.726 3.459-7.726 7.726v60.357c0 4.268 3.459 7.726 7.726 7.726 4.268 0 7.726-3.459 7.726-7.726v-15.201l21.52 20.762c1.499 1.447 3.433 2.166 5.363 2.166 2.024 0 4.045-.791 5.561-2.362 2.963-3.07 2.875-7.962-.196-10.925z" fill="#e4f6ff"/></g><g><path d="m117.768 383.622c4.268 0 7.726-3.459 7.726-7.726 0-4.268-3.459-7.726-7.726-7.726h-24.284c-4.268 0-7.726 3.459-7.726 7.726v59.916c0 4.268 3.459 7.726 7.726 7.726 4.268 0 7.726-3.459 7.726-7.726v-22.799h14.629c4.268 0 7.726-3.459 7.726-7.726s-3.459-7.726-7.726-7.726h-14.629v-13.939z" fill="#e4f6ff"/></g><g><path d="m325.898 428.03h-17.474v-14.45h15.616c4.268 0 7.726-3.459 7.726-7.726s-3.459-7.726-7.726-7.726h-15.616v-14.451h17.474c4.268 0 7.726-3.459 7.726-7.726s-3.459-7.726-7.726-7.726h-25.2c-4.268 0-7.726 3.459-7.726 7.726v59.806c0 4.268 3.459 7.726 7.726 7.726h25.2c4.268 0 7.726-3.459 7.726-7.726s-3.458-7.727-7.726-7.727z" fill="#e4f6ff"/></g></g><g><g><path d="m382.439 387.563c-4.268 0-7.726-3.459-7.726-7.726v-33.899h-33.899c-4.268 0-7.726-3.459-7.726-7.726s3.459-7.726 7.726-7.726h41.626c4.268 0 7.726 3.459 7.726 7.726v41.626c-.001 4.267-3.46 7.725-7.727 7.725z" fill="#dd5ca2"/></g></g><g><g><path d="m36.943 387.563c-4.268 0-7.726-3.459-7.726-7.726v-41.626c0-4.268 3.459-7.726 7.726-7.726h41.627c4.268 0 7.726 3.459 7.726 7.726s-3.459 7.726-7.726 7.726h-33.9v33.899c-.001 4.269-3.46 7.727-7.727 7.727z" fill="#dd5ca2"/></g></g><g><g><path d="m382.439 481.222h-41.626c-4.268 0-7.726-3.459-7.726-7.726s3.459-7.726 7.726-7.726h33.899v-33.9c0-4.268 3.459-7.726 7.726-7.726s7.726 3.459 7.726 7.726v41.626c.001 4.268-3.458 7.726-7.725 7.726z" fill="#dd5ca2"/></g></g><g><g><path d="m78.569 481.222h-41.626c-4.268 0-7.726-3.459-7.726-7.726v-41.626c0-4.268 3.459-7.726 7.726-7.726s7.726 3.459 7.726 7.726v33.899h33.9c4.268 0 7.726 3.459 7.726 7.726s-3.458 7.727-7.726 7.727z" fill="#dd5ca2"/></g></g><g><path d="m349.305 154.458h-312.362c-4.268 0-7.726-3.459-7.726-7.726s3.459-7.726 7.726-7.726h312.362c4.268 0 7.726 3.459 7.726 7.726s-3.459 7.726-7.726 7.726z" fill="#707dd3"/></g><g><g><g><g><path d="m66.602 118.04c-4.268 0-7.726-3.459-7.726-7.726v-66.478c0-3.381 2.199-6.37 5.427-7.376 3.231-1.004 6.736.203 8.658 2.986l32.375 46.882-.411-42.541c-.041-4.267 3.384-7.76 7.652-7.801 4.309-.058 7.759 3.385 7.801 7.652l.622 64.357c0 4.294-2.385 7.766-6.076 8.92-3.616 1.131-7.43-.282-9.725-3.594l-30.871-44.699v41.692c0 4.267-3.459 7.726-7.726 7.726z" fill="#dd636e"/></g></g><g><g><path d="m174.164 117.735h-27.807c-4.268 0-7.726-3.459-7.726-7.726v-65.993c0-4.268 3.459-7.726 7.726-7.726h27.807c4.268 0 7.726 3.459 7.726 7.726s-3.459 7.726-7.726 7.726h-20.08v50.54h20.08c4.268 0 7.726 3.459 7.726 7.726 0 4.269-3.458 7.727-7.726 7.727z" fill="#dd636e"/></g><g><path d="m172.114 84.739h-25.757c-4.268 0-7.726-3.459-7.726-7.726 0-4.268 3.459-7.726 7.726-7.726h25.757c4.268 0 7.726 3.459 7.726 7.726 0 4.268-3.459 7.726-7.726 7.726z" fill="#dd636e"/></g></g><g><g><path d="m332.739 118.04c-11.075 0-21.892-4.64-28.935-12.411-2.865-3.162-2.625-8.048.537-10.913s8.048-2.625 10.913.537c4.162 4.593 10.698 7.335 17.484 7.335 6.75 0 11.516-4.102 12.224-8.066.964-5.396-6.053-8.606-9.115-9.735-10.31-3.802-19.466-7.877-19.85-8.048-.372-.166-.73-.361-1.072-.585-6.825-4.45-10.341-12.255-9.176-20.369 1.244-8.663 7.589-15.722 16.556-18.424 17.895-5.388 32.627 6.765 33.244 7.284 3.267 2.745 3.688 7.62.943 10.886-2.735 3.255-7.585 3.684-10.85.973-.254-.204-9.179-7.271-18.88-4.346-4.604 1.386-5.531 4.534-5.716 5.823-.139.964-.206 3.29 1.909 4.937 2.258.989 9.96 4.318 18.239 7.371 16.458 6.071 20.596 17.901 18.98 26.95-2.151 12.053-13.689 20.801-27.435 20.801z" fill="#dd636e"/></g></g><g><g><path d="m222.172 118.04c-3.9 0-7.39-2.461-8.696-6.141-.126-.354-.226-.717-.299-1.087l-12.977-65.601c-.828-4.186 1.894-8.251 6.08-9.078 4.187-.833 8.251 1.894 9.078 6.08l8.154 41.218 12.963-41.882c1.262-4.076 5.592-6.355 9.666-5.097 4.076 1.263 6.358 5.59 5.097 9.666l-20.262 65.46c-.021.067-.043.134-.065.201-1.264 3.717-4.751 6.233-8.676 6.261-.021 0-.042 0-.063 0z" fill="#dd636e"/></g><g><path d="m265.483 118.04c-3.9 0-7.39-2.462-8.696-6.141-.037-.103-.071-.206-.104-.311l-20.21-65.602c-1.256-4.077 1.031-8.402 5.11-9.659 4.077-1.256 8.402 1.031 9.659 5.11l12.936 41.99 8.18-41.102c.832-4.185 4.898-6.904 9.086-6.069 4.185.833 6.902 4.9 6.069 9.086l-13.027 65.46c-.066.333-.154.661-.264.983-1.266 3.716-4.753 6.229-8.678 6.256-.021-.001-.041-.001-.061-.001z" fill="#dd636e"/></g></g></g></g><g><g><path d="m328.523 222.444h-84.491c-4.268 0-7.726-3.459-7.726-7.726s3.459-7.726 7.726-7.726h84.491c4.268 0 7.726 3.459 7.726 7.726s-3.458 7.726-7.726 7.726z" fill="#b1e4f9"/></g><g><path d="m331.858 187.759h-67.013c-4.268 0-7.726-3.459-7.726-7.726s3.459-7.726 7.726-7.726h67.013c4.268 0 7.726 3.459 7.726 7.726s-3.458 7.726-7.726 7.726z" fill="#b1e4f9"/></g><g><path d="m348.101 257.139h-104.069c-4.268 0-7.726-3.459-7.726-7.726s3.459-7.726 7.726-7.726h104.068c4.268 0 7.726 3.459 7.726 7.726s-3.458 7.726-7.725 7.726z" fill="#b1e4f9"/></g><g><path d="m343.75 291.824h-99.718c-4.268 0-7.726-3.459-7.726-7.726s3.459-7.726 7.726-7.726h99.718c4.268 0 7.726 3.459 7.726 7.726s-3.458 7.726-7.726 7.726z" fill="#b1e4f9"/></g></g><g><g><g><path d="m413.998 118.65c-50.115.921-90.759 42.258-90.876 92.381-.04 17.325 4.68 33.544 12.921 47.427.907 1.528 1.089 3.379.527 5.065l-9.54 28.619c-1.611 4.832 2.986 9.429 7.819 7.819l28.619-9.54c1.686-.562 3.537-.38 5.065.527 13.883 8.242 30.102 12.962 47.427 12.921 50.124-.117 91.461-40.76 92.381-90.876.966-52.529-41.813-95.308-94.343-94.343z" fill="#ffe07d"/></g><g><path d="m487.901 153.199c.76 5.22 1.161 10.557 1.161 15.989 0 60.742-49.241 109.984-109.984 109.984-15.872 0-30.956-3.368-44.584-9.419l-7.463 22.389c-1.611 4.832 2.986 9.429 7.819 7.819l28.619-9.54c1.686-.562 3.537-.38 5.065.527 13.824 8.206 29.963 12.921 47.206 12.921 50.712.001 91.682-40.193 92.603-90.896.41-22.648-7.315-43.478-20.442-59.774z" fill="#ffd064"/></g></g><g><g><path d="m423.587 258.309c0 4.334-3.513 7.848-7.848 7.848s-7.847-3.513-7.847-7.848 3.513-7.847 7.847-7.847 7.848 3.512 7.848 7.847z" fill="#ffc250"/></g></g></g><g><g><g><g><path d="m415.854 234.184c-4.268 0-7.726-3.459-7.726-7.726v-70.11c0-4.268 3.459-7.726 7.726-7.726s7.726 3.459 7.726 7.726v70.11c0 4.267-3.458 7.726-7.726 7.726z" fill="#ffc250"/></g></g></g></g></g></svg>